# xmcd
#
# Track frame offsets: 
#        150
#        26077
#        53487
#        76195
#        98061
#        119779
#        139258
#        156142
#        180738
#        205925
#
# Disc length: 3052 seconds
#
# Revision: 0
# Processed by: cddbd v1.5.2PL0 Copyright (c) Steve Scherf et al.
# Submitted via: ExactAudioCopy v0.99pb5
#
DISCID=830bea0a
DTITLE=Cole Mitchell - Primordial Reckoning
DYEAR=2009
DGENRE=Americana
TTITLE0=Out Of Control
TTITLE1=Throw Me A Line
TTITLE2=Mama
TTITLE3=Nobody
TTITLE4=Reflections
TTITLE5=Smile
TTITLE6=Hell Or High Water
TTITLE7=How Lucky the Moon
TTITLE8=The Rustic Side
TTITLE9=Highway 52
EXTD=
EXTT0=
EXTT1=
EXTT2=
EXTT3=
EXTT4=
EXTT5=
EXTT6=
EXTT7=
EXTT8=
EXTT9=
PLAYORDER=
